<svg id="svg" version="1.1" xmlns="http://www.w3.org/2000/svg" xmlns:xlink="http://www.w3.org/1999/xlink" width="400" height="400" viewBox="0, 0, 400,400"><g id="svgg"><path id="path0" d="M98.200 83.227 C 93.062 88.263,89.896 91.200,89.604 91.200 C 89.421 91.200,88.130 92.270,86.736 93.578 C 85.341 94.887,83.750 96.338,83.200 96.804 C 78.286 100.964,75.600 103.514,75.600 104.018 C 75.600 104.228,75.318 104.400,74.974 104.400 C 74.630 104.400,73.503 105.255,72.471 106.300 C 71.439 107.345,69.785 108.853,68.797 109.651 C 67.809 110.450,66.100 111.953,65.000 112.991 C 63.900 114.030,62.447 115.309,61.772 115.833 C 61.096 116.357,58.954 118.322,57.012 120.200 C 55.070 122.078,53.405 123.539,53.313 123.447 C 53.153 123.286,52.270 124.063,47.342 128.700 C 46.114 129.855,45.007 130.800,44.881 130.800 C 44.756 130.800,43.824 131.655,42.811 132.700 C 41.797 133.745,40.278 135.121,39.435 135.758 C 38.592 136.395,36.975 137.835,35.843 138.958 C 34.710 140.081,33.067 141.522,32.192 142.160 C 31.316 142.799,29.586 144.329,28.346 145.560 C 27.106 146.792,25.518 148.236,24.816 148.768 C 24.115 149.301,22.654 150.606,21.569 151.668 C 20.484 152.731,19.457 153.600,19.286 153.600 C 19.116 153.600,18.717 153.960,18.400 154.400 C 18.083 154.840,17.678 155.200,17.501 155.200 C 17.324 155.200,16.403 155.965,15.454 156.900 C 14.505 157.835,12.665 159.522,11.365 160.649 C 10.064 161.776,8.275 163.396,7.388 164.249 C 6.501 165.102,5.151 166.278,4.388 166.862 C -0.427 170.548,-1.118 172.324,1.500 174.280 C 2.325 174.896,3.060 175.535,3.133 175.700 C 3.207 175.865,3.435 176.000,3.640 176.000 C 3.845 176.000,5.350 177.305,6.984 178.900 C 11.520 183.329,16.025 187.421,17.800 188.726 C 18.680 189.374,20.531 191.005,21.913 192.352 C 23.295 193.698,24.534 194.800,24.666 194.800 C 24.797 194.800,25.737 195.633,26.753 196.651 C 27.769 197.669,29.584 199.334,30.787 200.351 C 31.991 201.368,33.717 202.920,34.625 203.800 C 36.846 205.955,38.342 207.200,38.710 207.200 C 38.877 207.200,40.320 208.460,41.916 210.000 C 43.512 211.540,45.004 212.800,45.232 212.800 C 45.461 212.800,45.536 212.980,45.400 213.200 C 45.264 213.420,45.341 213.600,45.571 213.600 C 45.801 213.600,46.853 214.455,47.909 215.500 C 48.964 216.545,50.812 218.210,52.014 219.200 C 53.216 220.190,54.560 221.326,55.000 221.724 C 55.440 222.123,56.856 223.383,58.146 224.524 C 59.436 225.666,61.525 227.590,62.788 228.800 C 64.052 230.010,65.664 231.450,66.371 232.000 C 67.078 232.550,68.673 233.976,69.916 235.170 C 71.159 236.363,72.901 237.900,73.788 238.586 C 74.674 239.272,76.054 240.455,76.852 241.216 C 79.715 243.943,81.594 245.600,81.823 245.600 C 81.952 245.600,83.183 246.725,84.558 248.100 C 85.934 249.475,87.657 251.050,88.388 251.600 C 89.120 252.150,90.546 253.386,91.559 254.346 C 92.571 255.306,94.030 256.566,94.800 257.146 C 95.570 257.726,97.043 259.055,98.074 260.100 C 99.111 261.151,100.318 262.000,100.776 262.000 C 101.640 262.000,106.963 256.899,107.037 256.000 C 107.047 255.890,109.472 253.346,112.427 250.347 C 115.382 247.347,118.070 244.488,118.400 243.992 C 118.730 243.497,120.198 241.889,121.663 240.419 C 125.520 236.547,125.240 235.620,118.693 230.582 C 118.109 230.132,116.648 228.827,115.449 227.682 C 114.249 226.537,113.069 225.600,112.827 225.600 C 112.585 225.600,111.057 224.295,109.431 222.700 C 107.805 221.105,105.952 219.350,105.314 218.800 C 104.676 218.250,103.343 217.080,102.352 216.200 C 101.361 215.320,99.662 213.851,98.575 212.935 C 97.489 212.020,95.902 210.625,95.050 209.835 C 94.197 209.046,93.346 208.400,93.158 208.400 C 92.970 208.400,91.586 207.140,90.082 205.600 C 88.578 204.060,87.208 202.800,87.037 202.800 C 86.866 202.800,85.556 201.630,84.126 200.200 C 82.696 198.770,81.382 197.600,81.205 197.600 C 80.891 197.600,79.901 196.750,76.519 193.577 C 75.594 192.710,74.559 192.000,74.219 192.000 C 73.878 192.000,73.600 191.825,73.600 191.611 C 73.600 191.108,70.530 188.038,68.541 186.552 C 67.694 185.918,66.190 184.585,65.200 183.589 C 64.210 182.593,62.770 181.335,62.000 180.794 C 61.230 180.253,59.839 179.088,58.908 178.205 C 56.143 175.582,55.242 174.800,54.983 174.800 C 54.848 174.800,54.032 174.066,53.169 173.168 L 51.601 171.536 53.236 169.868 C 54.135 168.951,54.956 168.255,55.059 168.323 C 55.163 168.391,56.324 167.356,57.641 166.023 C 58.957 164.690,60.114 163.600,60.212 163.600 C 60.482 163.600,61.873 162.411,64.073 160.300 C 65.162 159.255,66.184 158.400,66.344 158.400 C 66.504 158.400,67.707 157.397,69.018 156.170 C 70.328 154.944,72.030 153.459,72.800 152.870 C 73.570 152.282,75.043 150.945,76.074 149.900 C 77.105 148.855,78.150 148.000,78.396 148.000 C 78.643 148.000,79.904 146.920,81.200 145.600 C 82.496 144.280,83.746 143.200,83.978 143.200 C 84.210 143.200,84.400 143.020,84.400 142.800 C 84.400 142.580,84.589 142.400,84.819 142.400 C 85.049 142.400,86.067 141.583,87.080 140.583 C 88.094 139.584,89.476 138.373,90.152 137.892 C 90.828 137.411,92.436 135.978,93.725 134.708 C 95.015 133.439,96.232 132.400,96.430 132.400 C 96.628 132.400,97.860 131.320,99.168 130.000 C 100.476 128.680,101.698 127.600,101.884 127.600 C 102.069 127.600,103.367 126.520,104.767 125.200 C 106.167 123.880,107.438 122.800,107.591 122.800 C 107.745 122.800,109.176 121.540,110.772 120.000 C 112.368 118.460,113.827 117.200,114.014 117.200 C 114.202 117.200,115.415 116.165,116.710 114.900 C 118.005 113.635,119.660 112.150,120.387 111.600 C 125.422 107.793,125.521 107.393,122.289 103.942 C 120.920 102.480,118.270 99.617,116.400 97.581 C 114.530 95.544,112.567 93.500,112.039 93.039 C 110.793 91.952,108.862 89.919,107.600 88.365 C 107.050 87.687,105.970 86.443,105.200 85.599 C 104.430 84.755,103.308 83.510,102.706 82.832 C 101.263 81.206,100.164 81.302,98.200 83.227 M297.996 81.900 C 297.994 82.065,296.824 83.418,295.396 84.906 C 293.968 86.394,292.800 87.789,292.800 88.006 C 292.800 88.223,292.620 88.400,292.400 88.400 C 292.180 88.400,292.000 88.599,292.000 88.843 C 292.000 89.331,288.018 93.200,287.515 93.200 C 287.342 93.200,287.200 93.388,287.200 93.618 C 287.200 94.081,285.369 96.034,285.142 95.812 C 285.064 95.736,284.550 96.308,284.000 97.085 C 283.450 97.861,281.632 99.915,279.960 101.648 C 278.287 103.382,276.974 104.800,277.041 104.800 C 277.109 104.800,276.722 105.242,276.182 105.782 C 274.925 107.039,274.947 107.391,276.366 108.713 C 278.612 110.806,280.016 112.000,280.229 112.000 C 280.347 112.000,281.469 113.039,282.722 114.310 C 283.975 115.580,285.630 117.062,286.400 117.603 C 287.170 118.144,288.364 119.130,289.053 119.793 C 291.113 121.776,293.213 123.600,293.437 123.600 C 293.552 123.600,294.405 124.370,295.333 125.311 C 296.261 126.252,297.731 127.557,298.601 128.211 C 299.471 128.865,301.314 130.525,302.698 131.900 C 304.082 133.275,305.384 134.400,305.591 134.400 C 305.799 134.400,306.839 135.255,307.903 136.300 C 308.968 137.345,310.819 139.010,312.018 140.000 C 313.217 140.990,314.575 142.160,315.037 142.600 C 316.630 144.116,318.394 145.600,318.604 145.600 C 318.720 145.600,319.962 146.725,321.364 148.100 C 322.766 149.475,324.338 150.921,324.857 151.313 C 325.375 151.705,326.745 152.943,327.900 154.064 C 329.055 155.185,330.000 155.949,330.000 155.762 C 330.000 155.575,330.280 155.822,330.623 156.311 C 330.965 156.800,331.408 157.200,331.607 157.200 C 331.806 157.200,332.682 157.920,333.553 158.800 C 334.424 159.680,335.361 160.400,335.635 160.400 C 335.909 160.400,336.014 160.519,335.869 160.665 C 335.723 160.810,336.278 161.386,337.102 161.944 C 337.926 162.503,339.410 163.779,340.400 164.780 C 341.390 165.781,343.180 167.410,344.379 168.400 C 346.535 170.182,348.400 171.924,348.400 172.157 C 348.400 172.465,346.848 173.919,345.400 174.967 C 344.520 175.604,342.945 177.001,341.900 178.072 C 340.855 179.143,340.000 179.918,340.000 179.794 C 340.000 179.532,339.675 179.807,336.332 182.900 C 334.965 184.165,333.728 185.200,333.584 185.200 C 333.077 185.200,331.618 186.685,331.874 186.941 C 332.017 187.083,331.950 187.200,331.726 187.200 C 331.502 187.200,330.754 187.740,330.063 188.400 C 329.372 189.060,328.711 189.600,328.593 189.600 C 328.375 189.600,326.689 191.070,324.005 193.600 C 323.188 194.370,321.941 195.434,321.235 195.965 C 320.529 196.495,319.377 197.495,318.675 198.186 C 317.974 198.877,316.999 199.717,316.508 200.053 C 316.017 200.389,314.154 202.000,312.367 203.632 C 310.581 205.264,308.625 207.050,308.022 207.600 C 307.418 208.150,306.136 209.230,305.172 210.000 C 304.208 210.770,302.616 212.120,301.633 213.000 C 300.650 213.880,299.386 214.992,298.823 215.471 C 295.092 218.646,293.297 220.364,293.500 220.566 C 293.628 220.695,293.433 220.800,293.067 220.800 C 292.700 220.800,292.400 220.980,292.400 221.200 C 292.400 221.420,292.215 221.600,291.989 221.600 C 291.764 221.600,290.802 222.365,289.852 223.300 C 287.613 225.505,286.071 226.800,285.686 226.800 C 285.516 226.800,285.096 227.115,284.752 227.500 C 284.134 228.192,282.393 229.771,277.643 233.949 C 276.299 235.130,275.200 236.328,275.200 236.610 C 275.200 237.321,277.629 240.000,278.274 240.000 C 278.563 240.000,278.800 240.212,278.800 240.472 C 278.800 240.731,279.387 241.496,280.103 242.172 C 280.820 242.847,281.936 244.110,282.584 244.979 C 283.231 245.847,285.614 248.400,287.880 250.652 C 290.146 252.904,292.000 254.841,292.000 254.955 C 292.000 255.070,292.405 255.587,292.900 256.104 C 293.395 256.621,294.836 258.159,296.102 259.522 C 298.848 262.477,299.447 262.560,301.765 260.300 C 304.611 257.527,306.800 255.575,306.800 255.811 C 306.800 255.932,307.657 255.170,308.705 254.116 C 309.753 253.062,311.307 251.677,312.159 251.038 C 313.012 250.399,314.851 248.734,316.247 247.338 C 317.643 245.942,318.929 244.800,319.104 244.800 C 319.280 244.800,319.683 244.440,320.000 244.000 C 320.317 243.560,320.705 243.200,320.861 243.200 C 321.017 243.200,322.230 242.165,323.557 240.900 C 326.966 237.648,328.000 236.739,328.000 236.995 C 328.000 237.117,328.964 236.268,330.142 235.109 C 331.320 233.949,333.014 232.411,333.906 231.692 C 334.799 230.973,336.515 229.398,337.721 228.192 C 338.927 226.986,340.123 226.000,340.380 226.000 C 340.637 226.000,340.736 225.820,340.600 225.600 C 340.464 225.380,340.569 225.200,340.834 225.200 C 341.287 225.200,342.406 224.249,345.343 221.367 C 346.034 220.689,347.230 219.700,348.000 219.170 C 348.770 218.641,350.803 216.810,352.519 215.103 C 354.234 213.397,355.724 212.000,355.829 212.000 C 355.935 212.000,356.803 211.235,357.759 210.300 C 358.714 209.365,360.073 208.150,360.779 207.600 C 361.484 207.050,362.452 206.291,362.930 205.913 C 364.140 204.957,368.373 201.082,371.465 198.100 C 372.891 196.725,374.254 195.600,374.495 195.600 C 374.736 195.600,374.822 195.489,374.686 195.352 C 374.412 195.078,375.352 194.002,375.871 193.996 C 376.052 193.993,377.034 193.228,378.054 192.296 C 379.073 191.363,380.868 189.790,382.042 188.800 C 383.217 187.810,384.497 186.685,384.889 186.300 C 385.280 185.915,385.683 185.600,385.784 185.600 C 385.885 185.600,386.810 184.700,387.839 183.600 C 388.868 182.500,389.873 181.600,390.072 181.600 C 390.271 181.600,391.859 180.160,393.600 178.400 C 395.341 176.640,396.955 175.200,397.187 175.200 C 398.043 175.200,400.000 172.904,400.000 171.899 C 400.000 170.798,398.613 169.138,396.400 167.590 C 395.630 167.051,394.067 165.708,392.926 164.605 C 391.786 163.502,390.270 162.150,389.557 161.600 C 388.844 161.050,387.030 159.385,385.527 157.900 C 384.024 156.415,382.616 155.200,382.397 155.200 C 382.179 155.200,382.000 155.020,382.000 154.800 C 382.000 154.580,381.817 154.400,381.593 154.400 C 381.369 154.400,380.044 153.275,378.649 151.900 C 376.086 149.374,374.528 148.000,374.226 148.000 C 374.136 148.000,372.774 146.740,371.200 145.200 C 369.626 143.660,368.182 142.400,367.992 142.400 C 367.801 142.400,366.582 141.365,365.282 140.100 C 362.399 137.293,360.481 135.600,360.185 135.600 C 360.064 135.600,358.831 134.475,357.447 133.100 C 356.063 131.725,353.709 129.520,352.215 128.200 C 350.721 126.880,348.856 125.215,348.071 124.500 C 347.286 123.785,346.496 123.200,346.315 123.200 C 346.135 123.200,344.659 121.895,343.035 120.300 C 339.812 117.135,335.366 113.092,333.969 112.056 C 333.483 111.695,332.661 111.003,332.142 110.518 C 331.624 110.033,331.200 109.709,331.200 109.798 C 331.200 109.888,330.126 108.889,328.812 107.580 C 327.499 106.271,326.310 105.200,326.171 105.200 C 326.031 105.200,324.752 104.075,323.328 102.700 C 321.905 101.325,320.191 99.750,319.520 99.200 C 318.849 98.650,316.771 96.805,314.903 95.100 C 313.034 93.395,311.352 92.000,311.164 92.000 C 310.976 92.000,309.489 90.695,307.859 89.100 C 306.229 87.505,303.959 85.390,302.816 84.400 C 301.673 83.410,300.494 82.375,300.197 82.100 C 299.612 81.558,298.002 81.412,297.996 81.900 M119.700 268.665 C 119.308 268.823,119.200 274.114,119.200 293.233 L 119.200 317.600 123.300 317.594 C 128.755 317.586,128.361 318.158,128.490 310.040 L 128.600 303.116 130.986 306.658 C 132.298 308.606,133.649 310.470,133.988 310.800 C 134.328 311.130,134.860 311.895,135.170 312.500 C 135.481 313.105,135.885 313.600,136.068 313.600 C 136.250 313.600,136.400 313.825,136.400 314.100 C 136.401 314.375,136.851 315.123,137.400 315.762 C 137.950 316.401,138.400 317.076,138.400 317.262 C 138.400 317.448,141.030 317.600,144.243 317.600 L 150.087 317.600 149.833 316.590 C 149.694 316.035,148.942 314.910,148.162 314.090 C 147.382 313.271,146.448 312.105,146.086 311.500 C 145.724 310.895,145.286 310.400,145.114 310.400 C 144.941 310.400,144.800 310.202,144.800 309.960 C 144.800 309.719,144.260 309.017,143.600 308.400 C 142.940 307.783,142.400 307.057,142.400 306.786 C 142.400 306.516,142.012 305.958,141.539 305.547 C 141.065 305.136,140.802 304.800,140.955 304.800 C 141.107 304.800,141.051 304.575,140.830 304.300 C 140.609 304.025,139.915 303.170,139.288 302.400 C 136.442 298.902,136.236 298.449,137.057 297.491 C 137.855 296.560,138.066 296.304,139.600 294.394 C 140.150 293.710,141.005 292.719,141.500 292.193 C 141.995 291.667,142.400 291.132,142.400 291.005 C 142.400 290.878,143.011 290.163,143.757 289.416 C 144.503 288.670,145.626 287.371,146.253 286.530 C 146.879 285.688,147.708 284.709,148.096 284.353 C 148.944 283.574,149.001 282.664,148.239 282.032 C 147.808 281.675,147.630 281.687,147.470 282.083 C 147.356 282.367,147.249 282.420,147.232 282.200 C 147.160 281.265,137.200 282.304,137.200 283.246 C 137.200 283.445,136.660 284.172,136.000 284.863 C 135.340 285.554,134.800 286.290,134.800 286.499 C 134.800 286.708,134.260 287.383,133.600 288.000 C 132.940 288.617,132.400 289.319,132.400 289.560 C 132.400 289.802,132.220 290.000,132.000 290.000 C 131.780 290.000,131.600 290.190,131.600 290.422 C 131.600 290.654,131.061 291.419,130.402 292.122 C 129.743 292.825,129.203 293.535,129.202 293.700 C 129.201 293.865,129.020 294.000,128.800 294.000 C 128.542 294.000,128.400 289.600,128.400 281.600 C 128.400 270.844,128.320 269.200,127.800 269.200 C 127.470 269.200,127.200 269.020,127.200 268.800 C 127.200 268.394,120.663 268.276,119.700 268.665 M8.296 282.180 C 7.543 282.730,7.295 285.600,8.000 285.600 C 8.220 285.600,8.400 286.615,8.400 287.855 C 8.400 290.734,9.254 297.200,9.634 297.200 C 9.793 297.200,9.829 298.191,9.714 299.403 C 9.599 300.614,9.697 302.099,9.931 302.703 C 10.165 303.306,10.450 304.790,10.565 306.000 C 10.753 307.978,11.006 309.778,11.918 315.600 L 12.200 317.400 17.300 317.512 C 22.125 317.618,22.400 317.582,22.400 316.845 C 22.400 316.417,22.765 315.216,23.210 314.177 C 23.656 313.137,23.927 312.194,23.814 312.080 C 23.700 311.967,23.807 311.632,24.052 311.337 C 24.297 311.042,24.364 310.800,24.200 310.800 C 24.036 310.800,24.110 310.549,24.365 310.242 C 24.619 309.936,24.937 308.766,25.070 307.642 C 25.218 306.388,25.507 305.600,25.818 305.600 C 26.115 305.600,26.245 305.908,26.131 306.340 C 26.025 306.748,26.181 307.333,26.478 307.640 C 26.776 307.948,27.007 308.470,26.992 308.800 C 26.977 309.130,27.200 309.984,27.487 310.698 C 27.774 311.412,28.030 312.132,28.055 312.298 C 28.120 312.720,28.230 313.123,28.904 315.400 L 29.495 317.400 34.627 317.513 C 37.449 317.574,39.644 317.511,39.505 317.371 C 39.365 317.232,39.435 316.641,39.660 316.059 C 39.884 315.476,40.151 314.010,40.253 312.800 C 40.354 311.590,40.583 310.055,40.762 309.390 C 40.940 308.724,41.054 307.320,41.014 306.269 C 40.975 305.219,41.091 304.268,41.271 304.156 C 41.452 304.044,41.600 302.714,41.600 301.200 C 41.600 299.686,41.780 298.336,42.000 298.200 C 42.220 298.064,42.400 296.714,42.400 295.200 C 42.400 293.686,42.580 292.336,42.800 292.200 C 43.020 292.064,43.200 290.804,43.200 289.400 C 43.200 287.996,43.380 286.736,43.600 286.600 C 44.132 286.271,44.116 282.519,43.581 282.188 C 43.050 281.860,37.681 281.882,36.547 282.217 C 35.609 282.494,35.348 283.820,34.941 290.391 C 34.825 292.257,34.566 294.090,34.365 294.465 C 34.164 294.840,33.997 296.554,33.994 298.274 C 33.991 299.993,33.813 301.670,33.600 302.000 C 33.269 302.513,33.211 302.498,33.206 301.900 C 33.203 301.515,33.020 301.200,32.800 301.200 C 32.580 301.200,32.400 300.750,32.400 300.200 C 32.400 299.650,32.220 299.200,32.000 299.200 C 31.780 299.200,31.600 298.660,31.600 298.000 C 31.600 297.340,31.420 296.800,31.200 296.800 C 30.980 296.800,30.800 296.260,30.800 295.600 C 30.800 294.940,30.620 294.400,30.400 294.400 C 30.180 294.400,30.000 293.860,30.000 293.200 C 30.000 291.880,29.698 291.775,26.483 291.967 C 25.538 292.023,24.548 291.889,24.282 291.668 C 23.327 290.876,21.600 293.005,21.600 294.974 C 21.600 295.538,21.420 296.000,21.200 296.000 C 20.980 296.000,20.800 296.439,20.800 296.976 C 20.800 297.513,20.620 298.064,20.400 298.200 C 20.180 298.336,20.000 298.776,20.000 299.178 C 20.000 300.152,18.943 302.154,18.665 301.705 C 18.545 301.510,18.409 299.961,18.364 298.263 C 18.319 296.564,18.129 295.080,17.941 294.964 C 17.754 294.848,17.600 293.582,17.600 292.150 C 17.600 290.719,17.431 289.231,17.223 288.844 C 17.016 288.457,16.808 286.930,16.760 285.450 C 16.656 282.232,16.533 282.135,12.424 282.030 C 10.787 281.988,9.345 281.890,9.220 281.812 C 9.094 281.734,8.678 281.900,8.296 282.180 M56.573 282.044 C 56.452 282.240,55.913 282.400,55.376 282.400 C 54.839 282.400,54.400 282.580,54.400 282.800 C 54.400 283.020,54.139 283.200,53.821 283.200 C 52.413 283.200,46.800 289.702,46.800 291.333 C 46.800 291.668,46.575 292.181,46.300 292.471 C 46.025 292.762,45.751 293.540,45.691 294.200 C 45.630 294.860,45.373 296.520,45.119 297.889 C 44.768 299.783,44.770 300.866,45.129 302.420 C 45.388 303.542,45.600 304.992,45.600 305.642 C 45.600 309.064,49.789 315.040,53.400 316.769 C 54.500 317.295,55.726 317.886,56.124 318.081 C 57.055 318.538,66.000 318.424,66.000 317.955 C 66.000 317.760,66.540 317.600,67.200 317.600 C 67.860 317.600,68.400 317.420,68.400 317.200 C 68.400 316.980,68.771 316.800,69.224 316.800 C 69.677 316.800,69.948 316.640,69.827 316.444 C 69.706 316.248,70.206 315.804,70.938 315.456 C 71.671 315.109,72.614 314.354,73.035 313.780 C 73.456 313.205,74.115 312.362,74.500 311.906 C 74.885 311.451,75.200 310.745,75.200 310.339 C 75.200 309.932,75.380 309.600,75.600 309.600 C 75.820 309.600,76.000 309.139,76.000 308.576 C 76.000 307.996,76.173 307.660,76.400 307.800 C 76.638 307.947,76.800 307.479,76.800 306.647 C 76.800 305.877,76.980 305.136,77.200 305.000 C 77.434 304.855,77.600 302.537,77.600 299.400 C 77.600 296.263,77.434 293.945,77.200 293.800 C 76.980 293.664,76.800 293.023,76.800 292.376 C 76.800 291.729,76.620 291.200,76.400 291.200 C 76.180 291.200,76.000 290.840,76.000 290.400 C 76.000 289.960,75.820 289.600,75.600 289.600 C 75.380 289.600,75.200 289.240,75.200 288.800 C 75.200 288.360,75.009 288.000,74.776 288.000 C 74.543 288.000,74.455 287.835,74.579 287.634 C 74.993 286.964,71.733 284.148,69.037 282.848 C 66.332 281.543,57.245 280.957,56.573 282.044 M90.792 281.736 C 90.686 281.839,89.340 281.975,87.800 282.040 C 86.260 282.104,84.775 282.231,84.500 282.321 C 84.110 282.449,84.000 286.351,84.000 300.043 L 84.000 317.600 88.582 317.600 L 93.164 317.600 93.414 316.265 C 93.552 315.530,93.605 310.580,93.532 305.264 C 93.460 299.949,93.505 295.600,93.632 295.600 C 93.760 295.600,94.119 295.105,94.431 294.500 C 97.501 288.529,103.600 288.461,103.600 294.397 C 103.600 297.263,103.658 297.292,109.000 297.118 L 112.600 297.000 112.717 293.637 C 112.786 291.674,112.661 290.101,112.417 289.857 C 112.188 289.628,112.000 289.152,112.000 288.800 C 112.000 287.969,111.088 286.007,110.700 286.003 C 110.535 286.001,110.400 285.812,110.400 285.582 C 110.400 284.965,108.657 283.331,107.014 282.408 C 105.434 281.520,98.292 281.204,97.800 282.000 C 97.664 282.220,97.281 282.400,96.948 282.400 C 96.615 282.400,96.087 282.656,95.774 282.969 C 95.460 283.282,94.787 283.867,94.277 284.269 C 93.767 284.671,93.142 285.360,92.887 285.800 C 92.493 286.481,92.423 286.287,92.412 284.500 C 92.403 282.961,92.249 282.400,91.833 282.400 C 91.522 282.400,91.203 282.209,91.125 281.975 C 91.047 281.741,90.897 281.634,90.792 281.736 M163.200 281.984 C 162.870 282.169,161.701 282.743,160.602 283.260 C 158.540 284.229,156.000 286.558,156.000 287.478 C 156.000 287.765,155.820 288.000,155.600 288.000 C 155.380 288.000,155.200 288.529,155.200 289.176 C 155.200 289.823,155.020 290.464,154.800 290.600 C 154.580 290.736,154.400 291.456,154.400 292.200 C 154.400 292.944,154.580 293.664,154.800 293.800 C 155.020 293.936,155.200 294.633,155.200 295.348 C 155.200 296.064,155.515 296.998,155.900 297.425 C 156.285 297.851,156.855 298.695,157.168 299.300 C 157.480 299.905,158.065 300.400,158.468 300.400 C 158.870 300.400,159.200 300.547,159.200 300.726 C 159.200 301.192,162.331 302.800,163.238 302.800 C 163.657 302.800,164.000 302.980,164.000 303.200 C 164.000 303.420,164.452 303.600,165.004 303.600 C 165.557 303.600,166.772 303.941,167.704 304.357 C 169.482 305.150,170.921 305.679,171.114 305.612 C 171.591 305.444,172.429 307.002,172.327 307.867 C 172.054 310.167,166.325 311.361,162.159 309.986 C 161.382 309.730,160.399 309.612,159.974 309.723 C 159.549 309.834,159.100 309.762,158.977 309.562 C 158.854 309.363,158.403 309.200,157.976 309.200 C 157.549 309.200,157.200 309.009,157.200 308.775 C 157.200 308.536,156.630 308.404,155.900 308.475 L 154.600 308.600 154.485 312.278 C 154.345 316.764,154.813 317.600,157.465 317.600 C 158.393 317.600,159.264 317.780,159.400 318.000 C 159.547 318.239,162.130 318.400,165.800 318.400 C 169.470 318.400,172.053 318.239,172.200 318.000 C 172.336 317.780,172.966 317.600,173.600 317.600 C 174.234 317.600,174.864 317.420,175.000 317.200 C 175.136 316.980,175.597 316.800,176.024 316.800 C 176.451 316.800,176.805 316.665,176.811 316.500 C 176.817 316.335,177.537 315.759,178.411 315.220 C 179.311 314.664,180.000 313.927,180.000 313.520 C 180.000 313.124,180.180 312.800,180.400 312.800 C 180.620 312.800,180.800 312.530,180.800 312.200 C 180.800 311.870,180.980 311.600,181.200 311.600 C 181.420 311.600,181.600 311.150,181.600 310.600 C 181.600 310.050,181.795 309.600,182.034 309.600 C 182.321 309.600,182.401 308.753,182.269 307.100 C 182.033 304.130,181.608 302.000,181.252 302.000 C 181.111 302.000,180.761 301.470,180.474 300.823 C 180.188 300.176,179.424 299.412,178.777 299.126 C 178.130 298.839,177.600 298.501,177.600 298.374 C 177.600 298.028,174.254 296.667,170.200 295.365 C 166.691 294.237,164.400 292.769,164.400 291.648 C 164.400 290.902,165.950 289.600,166.838 289.600 C 167.231 289.600,167.671 289.408,167.816 289.174 C 168.067 288.768,169.080 288.810,173.600 289.413 C 174.590 289.545,175.995 289.839,176.721 290.065 C 179.612 290.965,180.045 290.453,179.915 286.289 C 179.803 282.693,179.775 282.597,178.800 282.466 C 178.250 282.393,177.629 282.168,177.420 281.966 C 176.945 281.509,164.019 281.524,163.200 281.984 M65.113 291.196 C 66.635 292.325,67.600 294.048,67.600 295.638 C 67.600 296.251,67.780 296.864,68.000 297.000 C 68.220 297.136,68.400 298.306,68.400 299.600 C 68.400 300.894,68.220 302.064,68.000 302.200 C 67.780 302.336,67.600 303.247,67.600 304.224 C 67.600 305.201,67.420 306.000,67.200 306.000 C 66.980 306.000,66.800 306.283,66.800 306.629 C 66.800 308.080,64.125 309.684,61.595 309.749 C 60.497 309.777,59.600 309.665,59.600 309.500 C 59.600 309.335,59.301 309.200,58.936 309.200 C 58.097 309.200,56.000 306.886,56.000 305.961 C 56.000 305.579,55.802 305.201,55.559 305.120 C 54.607 304.802,54.988 295.866,56.048 293.649 C 57.688 290.219,62.162 289.009,65.113 291.196 " stroke="none" fill="#4cbc14" fill-rule="evenodd"></path><path id="path1" d="M128.400 130.186 C 128.400 140.747,127.024 139.659,140.199 139.513 L 150.401 139.400 150.400 173.900 L 150.400 208.400 139.643 208.400 C 130.203 208.400,128.856 208.477,128.643 209.033 C 128.509 209.381,128.400 213.341,128.400 217.833 L 128.400 226.000 160.400 226.000 L 192.400 226.000 192.400 217.771 C 192.400 207.316,193.716 208.400,181.029 208.400 L 170.800 208.400 170.800 173.900 L 170.799 139.400 180.801 139.513 C 193.745 139.660,192.400 140.742,192.400 130.186 L 192.400 121.600 160.400 121.600 L 128.400 121.600 128.400 130.186 M207.600 130.600 L 207.600 139.600 220.800 139.600 L 234.000 139.600 234.000 182.800 L 234.000 226.000 244.600 226.000 L 255.200 226.000 255.200 182.800 L 255.200 139.600 268.400 139.600 L 281.600 139.600 281.600 130.600 L 281.600 121.600 244.600 121.600 L 207.600 121.600 207.600 130.600 M189.867 268.667 C 189.720 268.813,189.600 279.446,189.600 292.295 C 189.600 317.642,189.525 316.800,191.771 316.800 C 192.337 316.800,192.800 316.980,192.800 317.200 C 192.800 317.420,193.599 317.600,194.576 317.600 C 195.553 317.600,196.464 317.780,196.600 318.000 C 196.744 318.233,198.996 318.400,202.000 318.400 C 205.004 318.400,207.256 318.233,207.400 318.000 C 207.536 317.780,208.267 317.600,209.024 317.600 C 209.781 317.600,210.400 317.420,210.400 317.200 C 210.400 316.980,210.720 316.800,211.112 316.800 C 211.503 316.800,212.083 316.440,212.400 316.000 C 212.717 315.560,213.213 315.200,213.502 315.200 C 214.184 315.200,216.800 312.584,216.800 311.902 C 216.800 311.613,217.160 311.117,217.600 310.800 C 218.040 310.483,218.400 309.903,218.400 309.512 C 218.400 309.120,218.580 308.800,218.800 308.800 C 219.020 308.800,219.200 308.260,219.200 307.600 C 219.200 306.940,219.380 306.400,219.600 306.400 C 219.825 306.400,220.000 305.275,220.000 303.824 C 220.000 302.407,220.180 301.136,220.400 301.000 C 220.620 300.864,220.800 300.054,220.800 299.200 C 220.800 298.346,220.620 297.536,220.400 297.400 C 220.180 297.264,220.000 295.993,220.000 294.576 C 220.000 293.125,219.825 292.000,219.600 292.000 C 219.380 292.000,219.200 291.460,219.200 290.800 C 219.200 290.140,219.020 289.600,218.800 289.600 C 218.580 289.600,218.400 289.328,218.400 288.995 C 218.400 288.254,217.619 286.819,216.772 286.004 C 216.427 285.672,216.028 285.085,215.885 284.700 C 215.742 284.315,215.389 284.000,215.101 284.000 C 214.813 284.000,214.317 283.640,214.000 283.200 C 213.683 282.760,213.103 282.400,212.712 282.400 C 212.320 282.400,212.000 282.220,212.000 282.000 C 212.000 281.780,211.136 281.600,210.080 281.600 C 209.024 281.600,207.964 281.404,207.725 281.165 C 207.412 280.852,207.215 280.852,207.022 281.165 C 206.874 281.404,205.863 281.600,204.776 281.600 C 203.689 281.600,202.800 281.780,202.800 282.000 C 202.800 282.220,202.512 282.400,202.160 282.400 C 201.809 282.400,201.017 282.940,200.400 283.600 C 199.783 284.260,199.171 284.800,199.040 284.800 C 198.908 284.800,198.800 281.110,198.800 276.600 L 198.800 268.400 194.467 268.400 C 192.083 268.400,190.013 268.520,189.867 268.667 M275.600 271.200 C 275.600 271.420,274.880 271.600,274.000 271.600 C 273.120 271.600,272.400 271.780,272.400 272.000 C 272.400 272.220,271.860 272.400,271.200 272.400 C 270.540 272.400,270.000 272.580,270.000 272.800 C 270.000 273.020,269.280 273.200,268.400 273.200 L 266.800 273.200 266.800 277.386 L 266.800 281.572 262.700 281.686 L 258.600 281.800 258.600 286.000 L 258.600 290.200 262.700 290.314 L 266.800 290.428 266.800 299.614 C 266.800 305.471,266.945 308.800,267.200 308.800 C 267.420 308.800,267.600 309.520,267.600 310.400 C 267.600 311.280,267.780 312.000,268.000 312.000 C 268.220 312.000,268.400 312.360,268.400 312.800 C 268.400 313.240,268.580 313.600,268.800 313.600 C 269.020 313.600,269.200 313.883,269.200 314.229 C 269.200 315.000,270.151 316.000,270.883 316.000 C 271.180 316.000,271.683 316.360,272.000 316.800 C 272.339 317.270,273.035 317.600,273.688 317.600 C 274.300 317.600,274.800 317.780,274.800 318.000 C 274.800 318.248,277.000 318.400,280.600 318.400 C 284.200 318.400,286.400 318.248,286.400 318.000 C 286.400 317.780,287.027 317.600,287.792 317.600 C 289.504 317.600,289.685 317.077,289.519 312.599 L 289.400 309.400 288.000 309.468 C 287.230 309.506,285.922 309.572,285.094 309.615 C 284.266 309.659,283.491 309.853,283.371 310.047 C 283.106 310.476,280.252 310.519,279.833 310.100 C 279.668 309.935,279.395 309.800,279.225 309.800 C 279.056 309.800,278.441 309.442,277.859 309.005 L 276.800 308.210 276.800 299.305 L 276.800 290.400 282.720 290.400 C 289.797 290.400,289.600 290.521,289.600 286.182 C 289.600 281.597,289.605 281.600,282.469 281.600 L 276.800 281.600 276.800 276.200 C 276.800 271.667,276.704 270.800,276.200 270.800 C 275.870 270.800,275.600 270.980,275.600 271.200 M308.400 272.000 C 308.400 272.220,307.680 272.400,306.800 272.400 C 305.920 272.400,305.200 272.580,305.200 272.800 C 305.200 273.020,304.660 273.200,304.000 273.200 L 302.800 273.200 302.800 277.400 L 302.800 281.600 298.608 281.600 C 293.681 281.600,293.893 281.357,294.082 286.800 L 294.200 290.200 298.500 290.314 L 302.800 290.427 302.800 300.414 C 302.800 306.805,302.944 310.400,303.200 310.400 C 303.420 310.400,303.600 310.940,303.600 311.600 C 303.600 312.260,303.780 312.800,304.000 312.800 C 304.220 312.800,304.400 313.076,304.400 313.413 C 304.400 314.209,306.991 316.800,307.787 316.800 C 308.124 316.800,308.400 316.980,308.400 317.200 C 308.400 317.420,308.749 317.600,309.176 317.600 C 309.603 317.600,310.064 317.780,310.200 318.000 C 310.513 318.507,321.696 318.538,322.220 318.034 C 322.429 317.832,323.050 317.607,323.600 317.534 C 324.591 317.401,324.600 317.364,324.600 313.400 L 324.600 309.400 323.400 309.435 C 322.740 309.455,321.390 309.616,320.400 309.794 C 316.136 310.561,312.800 309.786,312.800 308.029 C 312.800 307.793,312.620 307.600,312.400 307.600 C 312.146 307.600,312.000 304.470,312.000 299.010 L 312.000 290.420 318.300 290.310 L 324.600 290.200 324.718 286.800 C 324.913 281.193,325.423 281.600,318.192 281.600 L 312.000 281.600 312.000 276.600 L 312.000 271.600 310.200 271.600 C 309.210 271.600,308.400 271.780,308.400 272.000 M239.822 281.165 C 239.674 281.404,238.483 281.600,237.176 281.600 C 235.859 281.600,234.800 281.778,234.800 282.000 C 234.800 282.220,234.440 282.400,234.000 282.400 C 233.560 282.400,233.200 282.580,233.200 282.800 C 233.200 283.020,232.917 283.200,232.571 283.200 C 231.781 283.200,226.800 288.164,226.800 288.951 C 226.800 289.271,226.665 289.593,226.500 289.667 C 225.900 289.933,224.796 293.847,224.798 295.700 C 224.799 296.745,224.620 297.600,224.400 297.600 C 224.172 297.600,224.000 298.792,224.000 300.376 C 224.000 301.903,224.180 303.264,224.400 303.400 C 224.620 303.536,224.800 304.627,224.800 305.824 C 224.800 307.021,224.974 308.000,225.187 308.000 C 225.401 308.000,225.478 308.252,225.360 308.560 C 225.242 308.867,225.338 309.238,225.573 309.383 C 225.808 309.528,226.000 309.997,226.000 310.424 C 226.000 310.851,226.180 311.200,226.400 311.200 C 226.620 311.200,226.800 311.441,226.800 311.736 C 226.800 312.512,230.204 316.000,230.960 316.000 C 231.312 316.000,231.600 316.180,231.600 316.400 C 231.600 316.620,231.960 316.800,232.400 316.800 C 232.840 316.800,233.200 316.980,233.200 317.200 C 233.200 317.420,233.740 317.600,234.400 317.600 C 235.060 317.600,235.600 317.780,235.600 318.000 C 235.600 318.249,237.933 318.400,241.800 318.400 C 245.667 318.400,248.000 318.249,248.000 318.000 C 248.000 317.780,248.900 317.600,250.000 317.600 C 251.100 317.600,252.000 317.420,252.000 317.200 C 252.000 316.980,252.360 316.800,252.800 316.800 C 253.617 316.800,254.109 309.277,253.300 309.154 C 251.493 308.880,250.557 308.902,249.936 309.234 C 249.529 309.452,248.206 309.642,246.996 309.657 C 245.786 309.671,244.696 309.844,244.574 310.041 C 244.271 310.532,240.507 310.497,240.200 310.000 C 240.064 309.780,239.594 309.600,239.157 309.600 C 237.492 309.600,234.800 307.764,234.800 306.629 C 234.800 306.283,234.620 306.000,234.400 306.000 C 234.180 306.000,234.000 305.283,234.000 304.407 L 234.000 302.813 244.500 302.707 L 255.000 302.600 254.946 298.000 C 254.889 293.102,254.537 290.400,253.956 290.400 C 253.760 290.400,253.600 290.040,253.600 289.600 C 253.600 289.160,253.420 288.800,253.200 288.800 C 252.980 288.800,252.800 288.526,252.800 288.191 C 252.800 287.399,248.601 283.200,247.809 283.200 C 247.474 283.200,247.200 283.020,247.200 282.800 C 247.200 282.580,246.840 282.400,246.400 282.400 C 245.960 282.400,245.600 282.220,245.600 282.000 C 245.600 281.779,244.560 281.600,243.280 281.600 C 242.004 281.600,240.764 281.404,240.525 281.165 C 240.212 280.852,240.015 280.852,239.822 281.165 M346.600 281.200 C 346.464 281.420,345.373 281.600,344.176 281.600 C 342.979 281.600,342.000 281.780,342.000 282.000 C 342.000 282.220,341.584 282.400,341.075 282.400 C 340.567 282.400,339.764 282.760,339.292 283.200 C 338.820 283.640,338.240 284.000,338.003 284.000 C 337.392 284.000,334.800 286.669,334.800 287.298 C 334.800 287.587,334.440 288.083,334.000 288.400 C 333.560 288.717,333.200 289.286,333.200 289.665 C 333.200 290.043,333.020 290.464,332.800 290.600 C 332.580 290.736,332.400 291.287,332.400 291.824 C 332.400 292.361,332.220 292.800,332.000 292.800 C 331.780 292.800,331.600 293.509,331.600 294.376 C 331.600 295.243,331.420 296.064,331.200 296.200 C 330.975 296.339,330.800 298.263,330.800 300.600 C 330.800 302.937,330.975 304.861,331.200 305.000 C 331.420 305.136,331.600 305.856,331.600 306.600 C 331.600 307.344,331.780 308.064,332.000 308.200 C 332.220 308.336,332.400 308.887,332.400 309.424 C 332.400 309.961,332.568 310.400,332.773 310.400 C 332.978 310.400,333.266 310.779,333.413 311.242 C 333.755 312.319,338.288 316.800,339.035 316.800 C 339.346 316.800,339.600 316.980,339.600 317.200 C 339.600 317.420,340.140 317.600,340.800 317.600 C 341.460 317.600,342.000 317.780,342.000 318.000 C 342.000 318.250,344.392 318.400,348.376 318.400 C 352.196 318.400,354.852 318.240,355.000 318.000 C 355.136 317.780,356.047 317.600,357.024 317.600 C 358.001 317.600,358.800 317.441,358.800 317.247 C 358.800 317.052,359.160 316.799,359.600 316.684 C 360.329 316.493,360.400 316.138,360.400 312.661 C 360.400 308.854,360.072 307.910,359.046 308.762 C 358.760 308.999,358.420 309.087,358.290 308.957 C 358.160 308.827,357.408 308.933,356.620 309.193 C 355.831 309.454,354.380 309.667,353.396 309.667 C 352.412 309.667,351.504 309.832,351.379 310.033 C 351.083 310.513,347.786 310.507,346.895 310.024 C 346.256 309.678,344.630 309.247,343.891 309.227 C 343.110 309.205,341.628 307.140,341.392 305.745 C 341.248 304.895,341.044 303.885,340.938 303.500 C 340.759 302.847,341.423 302.800,350.893 302.800 C 358.252 302.800,361.172 302.668,361.520 302.320 C 362.112 301.728,362.182 294.560,361.600 294.200 C 361.380 294.064,361.200 293.344,361.200 292.600 C 361.200 291.856,361.020 291.136,360.800 291.000 C 360.580 290.864,360.400 290.313,360.400 289.776 C 360.400 289.239,360.220 288.800,360.000 288.800 C 359.780 288.800,359.600 288.522,359.600 288.183 C 359.600 287.520,359.383 287.221,357.131 284.787 C 356.324 283.914,355.379 283.200,355.031 283.200 C 354.684 283.200,354.400 283.020,354.400 282.800 C 354.400 282.580,354.051 282.400,353.624 282.400 C 353.197 282.400,352.736 282.220,352.600 282.000 C 352.464 281.780,351.384 281.600,350.200 281.600 C 349.016 281.600,347.936 281.420,347.800 281.200 C 347.664 280.980,347.394 280.800,347.200 280.800 C 347.006 280.800,346.736 280.980,346.600 281.200 M386.600 281.200 C 386.464 281.420,385.463 281.600,384.376 281.600 C 383.289 281.600,382.400 281.780,382.400 282.000 C 382.400 282.220,382.040 282.400,381.600 282.400 C 381.160 282.400,380.800 282.580,380.800 282.800 C 380.800 283.020,380.555 283.200,380.255 283.200 C 379.955 283.200,379.246 283.664,378.679 284.230 L 377.649 285.260 377.524 283.530 L 377.400 281.800 373.400 281.800 L 369.400 281.800 369.296 299.700 L 369.192 317.600 373.796 317.600 L 378.400 317.600 378.400 306.600 C 378.400 299.533,378.543 295.600,378.800 295.600 C 379.020 295.600,379.200 295.316,379.200 294.969 C 379.200 294.425,380.658 292.855,383.026 290.848 C 384.677 289.449,388.000 290.467,388.000 292.371 C 388.000 292.827,388.180 293.200,388.400 293.200 C 388.620 293.200,388.800 294.100,388.800 295.200 L 388.800 297.200 393.400 297.200 L 398.000 297.200 398.000 294.024 C 398.000 292.277,397.820 290.736,397.600 290.600 C 397.380 290.464,397.200 289.823,397.200 289.176 C 397.200 288.529,397.020 288.000,396.800 288.000 C 396.580 288.000,396.400 287.640,396.400 287.200 C 396.400 286.760,396.220 286.400,396.000 286.400 C 395.780 286.400,395.600 286.124,395.600 285.787 C 395.600 284.991,393.009 282.400,392.213 282.400 C 391.876 282.400,391.600 282.220,391.600 282.000 C 391.600 281.780,390.700 281.600,389.600 281.600 C 388.500 281.600,387.600 281.420,387.600 281.200 C 387.600 280.980,387.431 280.800,387.224 280.800 C 387.017 280.800,386.736 280.980,386.600 281.200 M243.500 290.806 C 244.308 291.541,244.800 292.369,244.800 292.994 C 244.800 293.547,244.980 294.000,245.200 294.000 C 245.420 294.000,245.600 294.180,245.600 294.400 C 245.600 294.648,243.400 294.800,239.800 294.800 C 234.129 294.800,232.724 294.436,234.400 293.400 C 234.620 293.264,234.801 292.848,234.801 292.476 C 234.802 292.104,235.341 291.440,236.000 291.000 C 236.659 290.560,237.198 290.065,237.199 289.900 C 237.203 288.935,242.240 289.659,243.500 290.806 M350.218 290.582 C 350.758 291.122,351.200 291.752,351.200 291.982 C 351.200 292.212,351.380 292.400,351.600 292.400 C 351.820 292.400,352.000 292.940,352.000 293.600 L 352.000 294.800 346.555 294.800 L 341.111 294.800 341.390 293.314 C 341.543 292.496,342.020 291.581,342.450 291.280 C 342.880 290.979,343.449 290.485,343.716 290.182 C 344.619 289.154,349.064 289.427,350.218 290.582 M208.274 290.914 C 208.754 291.181,209.164 291.533,209.185 291.696 C 209.205 291.858,209.292 292.218,209.379 292.496 C 210.653 296.599,210.437 303.219,208.909 306.835 C 208.057 308.855,203.665 310.891,202.039 310.021 C 201.607 309.790,200.701 309.600,200.026 309.600 L 198.800 309.600 198.800 302.688 C 198.800 296.235,198.853 295.738,199.600 295.200 C 200.040 294.883,200.400 294.385,200.400 294.094 C 200.400 293.506,201.665 292.163,203.200 291.121 C 204.369 290.327,207.023 290.219,208.274 290.914 M93.600 307.000 C 93.490 312.500,93.445 317.075,93.500 317.167 C 93.913 317.855,94.001 315.657,93.907 306.960 L 93.799 297.000 93.600 307.000 " stroke="none" fill="#343c33" fill-rule="evenodd"></path><path id="path2" d="M282.093 98.800 C 281.816 99.243,281.767 99.600,281.983 99.600 C 282.197 99.600,282.565 99.240,282.800 98.800 C 283.035 98.360,283.085 98.000,282.910 98.000 C 282.735 98.000,282.368 98.360,282.093 98.800 M66.000 111.600 C 65.493 112.040,65.257 112.400,65.477 112.400 C 65.696 112.400,66.202 112.040,66.600 111.600 C 66.998 111.160,67.234 110.800,67.123 110.800 C 67.013 110.800,66.507 111.160,66.000 111.600 M45.800 129.600 C 45.168 130.260,44.760 130.800,44.894 130.800 C 45.029 130.800,45.678 130.260,46.338 129.600 C 46.998 128.940,47.406 128.400,47.244 128.400 C 47.082 128.400,46.432 128.940,45.800 129.600 M9.970 161.500 L 9.000 162.600 10.200 161.600 C 10.860 161.050,11.475 160.555,11.567 160.500 C 11.658 160.445,11.555 160.400,11.336 160.400 C 11.118 160.400,10.503 160.895,9.970 161.500 M297.829 215.829 C 297.405 216.138,297.136 216.469,297.230 216.563 C 297.324 216.657,297.748 216.481,298.171 216.171 C 298.595 215.862,298.864 215.531,298.770 215.437 C 298.676 215.343,298.252 215.519,297.829 215.829 M305.830 256.452 C 305.407 256.863,305.249 257.200,305.481 257.200 C 305.943 257.200,307.009 256.065,306.757 255.842 C 306.671 255.766,306.254 256.040,305.830 256.452 M94.000 256.950 C 94.000 257.058,94.540 257.530,95.200 258.000 C 95.860 258.470,96.400 258.701,96.400 258.513 C 96.400 258.326,95.860 257.854,95.200 257.464 C 94.540 257.074,94.000 256.843,94.000 256.950 M9.400 281.810 C 10.221 282.112,15.921 282.196,15.741 281.904 C 15.637 281.737,14.078 281.614,12.276 281.632 C 10.474 281.649,9.180 281.729,9.400 281.810 M35.800 282.000 C 35.664 282.220,35.823 282.400,36.153 282.400 C 36.483 282.400,36.864 282.220,37.000 282.000 C 37.136 281.780,36.977 281.600,36.647 281.600 C 36.317 281.600,35.936 281.780,35.800 282.000 M38.700 281.889 C 39.415 281.978,40.585 281.978,41.300 281.889 C 42.015 281.801,41.430 281.728,40.000 281.728 C 38.570 281.728,37.985 281.801,38.700 281.889 M85.200 281.926 C 85.200 282.105,86.325 282.181,87.700 282.096 C 91.286 281.875,91.464 281.668,88.100 281.632 C 86.505 281.614,85.200 281.746,85.200 281.926 M91.200 282.000 C 91.200 282.220,91.470 282.400,91.800 282.400 C 92.130 282.400,92.400 282.220,92.400 282.000 C 92.400 281.780,92.130 281.600,91.800 281.600 C 91.470 281.600,91.200 281.780,91.200 282.000 M141.113 281.895 C 142.276 281.976,144.076 281.976,145.113 281.893 C 146.151 281.811,145.200 281.745,143.000 281.746 C 140.800 281.747,139.951 281.814,141.113 281.895 M92.428 285.300 C 92.452 286.389,92.512 286.470,92.800 285.800 C 93.275 284.695,93.275 284.000,92.800 284.000 C 92.580 284.000,92.413 284.585,92.428 285.300 M170.800 289.255 C 170.800 289.445,171.250 289.600,171.800 289.600 C 172.350 289.600,172.800 289.531,172.800 289.447 C 172.800 289.362,172.350 289.207,171.800 289.102 C 171.250 288.997,170.800 289.066,170.800 289.255 M24.210 291.617 C 24.352 291.846,25.421 291.981,26.594 291.917 C 29.358 291.765,29.010 291.200,26.153 291.200 C 24.730 291.200,24.044 291.347,24.210 291.617 M44.800 302.910 C 44.800 303.483,44.987 304.068,45.216 304.210 C 45.489 304.379,45.538 304.077,45.360 303.334 C 44.992 301.801,44.800 301.656,44.800 302.910 M11.200 313.710 C 11.200 314.283,11.387 314.868,11.616 315.010 C 11.889 315.179,11.938 314.877,11.760 314.134 C 11.392 312.601,11.200 312.456,11.200 313.710 " stroke="none" fill="#40c024" fill-rule="evenodd"></path><path id="path3" d="M282.093 98.800 C 281.816 99.243,281.767 99.600,281.983 99.600 C 282.197 99.600,282.565 99.240,282.800 98.800 C 283.035 98.360,283.085 98.000,282.910 98.000 C 282.735 98.000,282.368 98.360,282.093 98.800 M66.000 111.600 C 65.493 112.040,65.257 112.400,65.477 112.400 C 65.696 112.400,66.202 112.040,66.600 111.600 C 66.998 111.160,67.234 110.800,67.123 110.800 C 67.013 110.800,66.507 111.160,66.000 111.600 M45.800 129.600 C 45.168 130.260,44.760 130.800,44.894 130.800 C 45.029 130.800,45.678 130.260,46.338 129.600 C 46.998 128.940,47.406 128.400,47.244 128.400 C 47.082 128.400,46.432 128.940,45.800 129.600 M9.970 161.500 L 9.000 162.600 10.200 161.600 C 10.860 161.050,11.475 160.555,11.567 160.500 C 11.658 160.445,11.555 160.400,11.336 160.400 C 11.118 160.400,10.503 160.895,9.970 161.500 M297.829 215.829 C 297.405 216.138,297.136 216.469,297.230 216.563 C 297.324 216.657,297.748 216.481,298.171 216.171 C 298.595 215.862,298.864 215.531,298.770 215.437 C 298.676 215.343,298.252 215.519,297.829 215.829 M305.830 256.452 C 305.407 256.863,305.249 257.200,305.481 257.200 C 305.943 257.200,307.009 256.065,306.757 255.842 C 306.671 255.766,306.254 256.040,305.830 256.452 M94.000 256.950 C 94.000 257.058,94.540 257.530,95.200 258.000 C 95.860 258.470,96.400 258.701,96.400 258.513 C 96.400 258.326,95.860 257.854,95.200 257.464 C 94.540 257.074,94.000 256.843,94.000 256.950 M9.400 281.810 C 10.221 282.112,15.921 282.196,15.741 281.904 C 15.637 281.737,14.078 281.614,12.276 281.632 C 10.474 281.649,9.180 281.729,9.400 281.810 M35.800 282.000 C 35.664 282.220,35.823 282.400,36.153 282.400 C 36.483 282.400,36.864 282.220,37.000 282.000 C 37.136 281.780,36.977 281.600,36.647 281.600 C 36.317 281.600,35.936 281.780,35.800 282.000 M38.700 281.889 C 39.415 281.978,40.585 281.978,41.300 281.889 C 42.015 281.801,41.430 281.728,40.000 281.728 C 38.570 281.728,37.985 281.801,38.700 281.889 M85.200 281.926 C 85.200 282.105,86.325 282.181,87.700 282.096 C 91.286 281.875,91.464 281.668,88.100 281.632 C 86.505 281.614,85.200 281.746,85.200 281.926 M91.200 282.000 C 91.200 282.220,91.470 282.400,91.800 282.400 C 92.130 282.400,92.400 282.220,92.400 282.000 C 92.400 281.780,92.130 281.600,91.800 281.600 C 91.470 281.600,91.200 281.780,91.200 282.000 M141.113 281.895 C 142.276 281.976,144.076 281.976,145.113 281.893 C 146.151 281.811,145.200 281.745,143.000 281.746 C 140.800 281.747,139.951 281.814,141.113 281.895 M92.428 285.300 C 92.452 286.389,92.512 286.470,92.800 285.800 C 93.275 284.695,93.275 284.000,92.800 284.000 C 92.580 284.000,92.413 284.585,92.428 285.300 M170.800 289.255 C 170.800 289.445,171.250 289.600,171.800 289.600 C 172.350 289.600,172.800 289.531,172.800 289.447 C 172.800 289.362,172.350 289.207,171.800 289.102 C 171.250 288.997,170.800 289.066,170.800 289.255 M24.210 291.617 C 24.352 291.846,25.421 291.981,26.594 291.917 C 29.358 291.765,29.010 291.200,26.153 291.200 C 24.730 291.200,24.044 291.347,24.210 291.617 M44.800 302.910 C 44.800 303.483,44.987 304.068,45.216 304.210 C 45.489 304.379,45.538 304.077,45.360 303.334 C 44.992 301.801,44.800 301.656,44.800 302.910 M11.200 313.710 C 11.200 314.283,11.387 314.868,11.616 315.010 C 11.889 315.179,11.938 314.877,11.760 314.134 C 11.392 312.601,11.200 312.456,11.200 313.710 " stroke="none" fill="#40c024" fill-rule="evenodd"></path><path id="path4" d="M282.093 98.800 C 281.816 99.243,281.767 99.600,281.983 99.600 C 282.197 99.600,282.565 99.240,282.800 98.800 C 283.035 98.360,283.085 98.000,282.910 98.000 C 282.735 98.000,282.368 98.360,282.093 98.800 M66.000 111.600 C 65.493 112.040,65.257 112.400,65.477 112.400 C 65.696 112.400,66.202 112.040,66.600 111.600 C 66.998 111.160,67.234 110.800,67.123 110.800 C 67.013 110.800,66.507 111.160,66.000 111.600 M45.800 129.600 C 45.168 130.260,44.760 130.800,44.894 130.800 C 45.029 130.800,45.678 130.260,46.338 129.600 C 46.998 128.940,47.406 128.400,47.244 128.400 C 47.082 128.400,46.432 128.940,45.800 129.600 M9.970 161.500 L 9.000 162.600 10.200 161.600 C 10.860 161.050,11.475 160.555,11.567 160.500 C 11.658 160.445,11.555 160.400,11.336 160.400 C 11.118 160.400,10.503 160.895,9.970 161.500 M297.829 215.829 C 297.405 216.138,297.136 216.469,297.230 216.563 C 297.324 216.657,297.748 216.481,298.171 216.171 C 298.595 215.862,298.864 215.531,298.770 215.437 C 298.676 215.343,298.252 215.519,297.829 215.829 M305.830 256.452 C 305.407 256.863,305.249 257.200,305.481 257.200 C 305.943 257.200,307.009 256.065,306.757 255.842 C 306.671 255.766,306.254 256.040,305.830 256.452 M94.000 256.950 C 94.000 257.058,94.540 257.530,95.200 258.000 C 95.860 258.470,96.400 258.701,96.400 258.513 C 96.400 258.326,95.860 257.854,95.200 257.464 C 94.540 257.074,94.000 256.843,94.000 256.950 M9.400 281.810 C 10.221 282.112,15.921 282.196,15.741 281.904 C 15.637 281.737,14.078 281.614,12.276 281.632 C 10.474 281.649,9.180 281.729,9.400 281.810 M35.800 282.000 C 35.664 282.220,35.823 282.400,36.153 282.400 C 36.483 282.400,36.864 282.220,37.000 282.000 C 37.136 281.780,36.977 281.600,36.647 281.600 C 36.317 281.600,35.936 281.780,35.800 282.000 M38.700 281.889 C 39.415 281.978,40.585 281.978,41.300 281.889 C 42.015 281.801,41.430 281.728,40.000 281.728 C 38.570 281.728,37.985 281.801,38.700 281.889 M85.200 281.926 C 85.200 282.105,86.325 282.181,87.700 282.096 C 91.286 281.875,91.464 281.668,88.100 281.632 C 86.505 281.614,85.200 281.746,85.200 281.926 M91.200 282.000 C 91.200 282.220,91.470 282.400,91.800 282.400 C 92.130 282.400,92.400 282.220,92.400 282.000 C 92.400 281.780,92.130 281.600,91.800 281.600 C 91.470 281.600,91.200 281.780,91.200 282.000 M141.113 281.895 C 142.276 281.976,144.076 281.976,145.113 281.893 C 146.151 281.811,145.200 281.745,143.000 281.746 C 140.800 281.747,139.951 281.814,141.113 281.895 M92.428 285.300 C 92.452 286.389,92.512 286.470,92.800 285.800 C 93.275 284.695,93.275 284.000,92.800 284.000 C 92.580 284.000,92.413 284.585,92.428 285.300 M170.800 289.255 C 170.800 289.445,171.250 289.600,171.800 289.600 C 172.350 289.600,172.800 289.531,172.800 289.447 C 172.800 289.362,172.350 289.207,171.800 289.102 C 171.250 288.997,170.800 289.066,170.800 289.255 M24.210 291.617 C 24.352 291.846,25.421 291.981,26.594 291.917 C 29.358 291.765,29.010 291.200,26.153 291.200 C 24.730 291.200,24.044 291.347,24.210 291.617 M44.800 302.910 C 44.800 303.483,44.987 304.068,45.216 304.210 C 45.489 304.379,45.538 304.077,45.360 303.334 C 44.992 301.801,44.800 301.656,44.800 302.910 M11.200 313.710 C 11.200 314.283,11.387 314.868,11.616 315.010 C 11.889 315.179,11.938 314.877,11.760 314.134 C 11.392 312.601,11.200 312.456,11.200 313.710 " stroke="none" fill="#40c024" fill-rule="evenodd"></path></g></svg>